Coordinates
version=1
nRows=22
nColumns=24
inDegrees=yes

Units are S.I. units (second, meters, Newtons, ...)
Angles are in degrees.

endheader
time	pelvis_tilt	pelvis_list	pelvis_rotation	pelvis_tx	pelvis_ty	pelvis_tz	hip_flexion_r	hip_adduction_r	hip_rotation_r	knee_angle_r	ankle_angle_r	subtalar_angle_r	mtp_angle_r	hip_flexion_l	hip_adduction_l	hip_rotation_l	knee_angle_l	ankle_angle_l	subtalar_angle_l	mtp_angle_l	lumbar_extension	lumbar_bending	lumbar_rotation
      3.88000000	      0.41300917	      5.32466408	     -3.79459991	     -0.45556017	      0.93788071	      0.22985728	     22.68340763	     -4.19828896	      1.85938113	    -65.50342639	     11.94713526	    -10.88160184	      0.00000000	     13.44735390	     12.74904333	      3.77339471	    -23.96550713	     16.26330458	    -17.04176592	      0.00000000	    -10.54253620	     -8.08189912	     -6.17693670
      3.88500000	      0.48574011	      5.09169762	     -3.56781151	     -0.44916098	      0.93929628	      0.22954393	     23.02053699	     -3.89291059	      1.87489742	    -64.40350155	     12.22433704	    -10.76576329	      0.00000000	     12.58884963	     12.62123192	      4.34995563	    -23.43979827	     16.24028895	    -17.27570525	      0.00000000	    -10.68846542	     -7.75728940	     -6.40131768
      3.89000000	      0.51901064	      4.85908274	     -3.34245221	     -0.44275620	      0.94056133	      0.22923551	     23.37624735	     -3.59539527	      1.87103275	    -63.23445911	     12.46596083	    -10.71457930	      0.00000000	     11.78359941	     12.47702592	      4.86486226	    -22.92038754	     16.24802172	    -17.51640277	      0.00000000	    -10.77930028	     -7.43454581	     -6.60346351
      3.89500000	      0.53296276	      4.63472915	     -3.11487919	     -0.43637036	      0.94172524	      0.22892050	     23.72735276	     -3.31220339	      1.86311089	    -61.99287646	     12.66339633	    -10.72033093	      0.00000000	     11.00642303	     12.33078178	      5.36650050	    -22.40343078	     16.25554766	    -17.75014271	      0.00000000	    -10.84436546	     -7.11959817	     -6.80341139
      3.90000000	      0.55805914	      4.43034452	     -2.87083585	     -0.43002064	      0.94283956	      0.22860707	     24.03730335	     -3.05292518	      1.86235050	    -60.67770543	     12.80878872	    -10.79246405	      0.00000000	     10.22065976	     12.20096670	      5.91007659	    -21.88720146	     16.23246271	    -17.99053621	      0.00000000	    -10.92784011	     -6.82885841	     -7.05349950
      3.90500000	      0.55996030	      4.23130699	     -2.62407908	     -0.42368285	      0.94383540	      0.22830575	     24.34543135	     -2.80877192	      1.84622740	    -59.29208234	     12.92119407	    -10.92008255	      0.00000000	      9.46788302	     12.06377100	      6.42226635	    -21.37338414	     16.22228344	    -18.23064204	      0.00000000	    -10.98340613	     -6.55043029	     -7.28876782
      3.91000000	      0.55883432	      4.04806986	     -2.36804014	     -0.41734461	      0.94474276	      0.22798311	     24.62676076	     -2.59376245	      1.82410215	    -57.83531471	     12.99762269	    -11.09558186	      0.00000000	      8.72604932	     11.93728126	      6.93284372	    -20.86775857	     16.21213503	    -18.47547841	      0.00000000	    -11.02887138	     -6.28674806	     -7.53618680
      3.91500000	      0.51846196	      3.86188568	     -2.11877916	     -0.41100760	      0.94550541	      0.22765915	     24.92395603	     -2.38708785	      1.78523290	    -56.30966912	     13.03999011	    -11.31607982	      0.00000000	      8.03824962	     11.79440916	      7.39199067	    -20.37292661	     16.23019851	    -18.70236069	      0.00000000	    -11.02288113	     -6.01707177	     -7.73620317
      3.92000000	      0.52775422	      3.71672363	     -1.84269162	     -0.40472006	      0.94625712	      0.22731919	     25.13850769	     -2.23297482	      1.76237071	    -54.72186328	     13.04730911	    -11.57732556	      0.00000000	      7.29612110	     11.69669926	      7.94398562	    -19.87549622	     16.19863856	    -18.95326844	      0.00000000	    -11.09037628	     -5.79599930	     -8.05103158
      3.92500000	      0.44115407	      3.54596628	     -1.60543928	     -0.39843308	      0.94678438	      0.22701363	     25.42942377	     -2.04443130	      1.76384891	    -53.06333522	     13.03263800	    -11.83562245	      0.00000000	      6.68472296	     11.55061306	      8.36933029	    -19.41347098	     16.23241732	    -19.14253707	      0.00000000	    -11.03044932	     -5.54091581	     -8.21933671
      3.93000000	      0.42038298	      3.41277547	     -1.32322610	     -0.39212459	      0.94731377	      0.22665571	     25.61879540	     -1.94293009	      1.67702901	    -51.34320150	     12.95743213	    -12.17969277	      0.00000000	      5.98794797	     11.44971967	      8.89255046	    -18.93323265	     16.23828115	    -19.39173316	      0.00000000	    -11.04997816	     -5.33274012	     -8.51687244
      3.93500000	      0.42193954	      3.31139753	     -1.04005360	     -0.38588572	      0.94778997	      0.22631424	     25.75890401	     -1.87233096	      1.64403380	    -49.57303756	     12.88994520	    -12.46007039	      0.00000000	      5.26830305	     11.37562166	      9.45481235	    -18.44412651	     16.20042253	    -19.66528050	      0.00000000	    -11.11334703	     -5.16755062	     -8.83781003
      3.94000000	      0.32505770	      3.18590651	     -0.79547321	     -0.37961124	      0.94802437	      0.22596892	     25.97897938	     -1.78263168	      1.59669656	    -47.73837336	     12.79026356	    -12.75596720	      0.00000000	      4.68348983	     11.26314465	      9.88938930	    -18.00041490	     16.24749873	    -19.87317858	      0.00000000	    -11.03937368	     -4.95877035	     -9.02075475
      3.94500000	      0.26240331	      3.07903560	     -0.51686516	     -0.37336938	      0.94824201	      0.22564149	     26.12691226	     -1.73092072	      1.52847949	    -45.84453999	     12.65098480	    -13.04548331	      0.00000000	      4.05558900	     11.16508310	     10.40547676	    -17.54885906	     16.26717393	    -20.10577963	      0.00000000	    -11.02102836	     -4.78565543	     -9.29026524
      3.95000000	      0.20778552	      2.99491130	     -0.24792775	     -0.36713479	      0.94837858	      0.22530024	     26.24303198	     -1.71879370	      1.44970548	    -43.90660276	     12.50801411	    -13.28296804	      0.00000000	      3.42023247	     11.08682028	     10.92473834	    -17.09514238	     16.27733440	    -20.35574869	      0.00000000	    -11.01354529	     -4.63387258	     -9.55090808
      3.95500000	      0.19762974	      2.94956450	      0.02242831	     -0.36091135	      0.94849868	      0.22494225	     26.28746513	     -1.76218831	      1.37181600	    -41.93361333	     12.36316737	    -13.44402570	      0.00000000	      2.72379926	     11.04631308	     11.49982443	    -16.61572086	     16.23276659	    -20.66523041	      0.00000000	    -11.06660292	     -4.52308472	     -9.85866871
      3.96000000	      0.08727452	      2.87820045	      0.26769655	     -0.35467205	      0.94837997	      0.22464340	     26.41460662	     -1.78288331	      1.25121231	    -39.90990117	     12.19672063	    -13.59232853	      0.00000000	      2.16856574	     10.96524063	     11.95059147	    -16.19044070	     16.29140299	    -20.88393654	      0.00000000	    -10.99104878	     -4.39258673	    -10.04254009
      3.96500000	      0.04241685	      2.84204556	      0.52809880	     -0.34844851	      0.94829672	      0.22433956	     26.44530357	     -1.85820459	      1.10661128	    -37.85620291	     12.01763442	    -13.65844490	      0.00000000	      1.52494998	     10.91506637	     12.48151242	    -15.73483110	     16.28445286	    -21.15063923	      0.00000000	    -11.00483598	     -4.30236073	    -10.31557857
      3.97000000	     -0.04860932	      2.81475218	      0.76101628	     -0.34220598	      0.94803950	      0.22403051	     26.51161787	     -1.94938125	      0.93187798	    -35.78429104	     11.86030871	    -13.64513051	      0.00000000	      0.95004795	     10.87071065	     12.92440203	    -15.30834338	     16.33559460	    -21.37152476	      0.00000000	    -10.95502233	     -4.21337560	    -10.50841614
      3.97500000	     -0.10001499	      2.81432792	      1.01427968	     -0.33596458	      0.94777449	      0.22370699	     26.51688305	     -2.08725731	      0.70388999	    -33.70470094	     11.69618200	    -13.54630943	      0.00000000	      0.32014886	     10.84669449	     13.39669145	    -14.85867606	     16.35643646	    -21.61790174	      0.00000000	    -10.96083492	     -4.15557124	    -10.74111052
      3.98000000	     -0.17328036	      2.82290836	      1.24443827	     -0.32969759	      0.94738966	      0.22347250	     26.53719133	     -2.23352530	      0.42083407	    -31.62738341	     11.56159594	    -13.33992280	      0.00000000	     -0.27705947	     10.82080114	     13.80705575	    -14.42259901	     16.41173264	    -21.83191585	      0.00000000	    -10.94228557	     -4.12409232	    -10.92812192
      3.98500000	     -0.20876367	      2.86125275	      1.46322460	     -0.32339988	      0.94698357	      0.22321928	     26.51653004	     -2.42071784	      0.05641074	    -29.57448653	     11.44357492	    -13.02840043	      0.00000000	     -0.92310234	     10.82146758	     14.22343957	    -13.97683064	     16.44708035	    -22.04708192	      0.00000000	    -10.96074799	     -4.11644359	    -11.13954779
